<svg xmlns="http://www.w3.org/2000/svg" width="157" height="133" viewBox="0 0 157 133">
  <g id="Group_259" data-name="Group 259" transform="translate(-256 -3001)">
    <g id="Group_258" data-name="Group 258">
      <path id="Path_69" data-name="Path 69" d="M306.935,346a.935.935,0,1,0,.935.935A.936.936,0,0,0,306.935,346Zm0,0" transform="translate(33.425 2742.489)" fill="#0fbf61"/>
      <path id="Path_70" data-name="Path 70" d="M43.214,0H4.677A4.682,4.682,0,0,0,0,4.677V33.3a4.682,4.682,0,0,0,4.677,4.677H19.269v4.3h-.935a4.678,4.678,0,0,0-4.677,4.677.935.935,0,0,0,.935.935H33.3a.935.935,0,0,0,.935-.935,4.682,4.682,0,0,0-4.677-4.677h-.935v-4.3H43.214A4.682,4.682,0,0,0,47.891,33.3V4.677A4.682,4.682,0,0,0,43.214,0ZM4.677,1.871H43.214a2.809,2.809,0,0,1,2.806,2.806V28.623h-4.3V7.109a.935.935,0,0,0-.935-.935H33.3a.935.935,0,0,0-.935.935V28.623H27.682c-.01-.968-.035-1.921-.075-2.846a60.165,60.165,0,0,0-.731-7.484,4.677,4.677,0,0,0,1.277-6.1L24.911,6.576a.935.935,0,0,0-1.62,0l-3.243,5.616a4.676,4.676,0,0,0,1.029,5.9,59.377,59.377,0,0,0-.788,7.68c-.042.935-.069,1.889-.079,2.848H15.527V14.592a.93.93,0,0,0-.092-.4s0-.01-.006-.015L11.687,6.691a.936.936,0,0,0-1.673,0L6.272,14.174l-.006.015a.93.93,0,0,0-.093.4V28.623h-4.3V4.677A2.809,2.809,0,0,1,4.677,1.871ZM34.235,28.623V8.044h5.612V9.915h-.935a.935.935,0,0,0,0,1.871h.935v2.806h-.935a.935.935,0,0,0,0,1.871h.935v2.806h-.935a.935.935,0,0,0,0,1.871h.935v3.742h-.935a.935.935,0,0,0,0,1.871h.935v1.871ZM24.1,19.2a4.684,4.684,0,0,0,1.009-.112c.174,1.113.429,3.081.579,5.789H22.208c.158-2.706.425-4.705.61-5.856A4.683,4.683,0,0,0,24.1,19.2Zm0-1.871a2.81,2.81,0,0,1-2.433-4.206L24.1,8.915l2.432,4.212A2.808,2.808,0,0,1,24.1,17.333Zm-1.979,9.418h3.65c.02.615.033,1.24.04,1.871H22.08c.007-.627.021-1.252.042-1.871ZM11.786,28.623v-13.1h1.871v13.1Zm-3.742,0v-13.1H9.915v13.1Zm.578-14.966L10.85,9.2l2.228,4.456ZM32.2,46.021H15.686a2.812,2.812,0,0,1,2.647-1.871H29.558A2.811,2.811,0,0,1,32.2,46.021Zm-5.452-3.742H21.139v-4.3h5.612Zm16.463-6.173H4.677A2.809,2.809,0,0,1,1.871,33.3V30.493H46.02V33.3A2.809,2.809,0,0,1,43.214,36.106Zm0,0" transform="translate(310.802 3056.125)" fill="#0fbf61"/>
      <path id="Path_71" data-name="Path 71" d="M212.548,346h-5.612a.935.935,0,1,0,0,1.871h5.612a.935.935,0,1,0,0-1.871Zm0,0" transform="translate(124.071 2742.489)" fill="#0fbf61"/>
      <g id="Group_256" data-name="Group 256">
        <g id="Path_116" data-name="Path 116" transform="translate(280 3026)" fill="none">
          <path d="M54.5,0C84.6,0,109,24.177,109,54A53.675,53.675,0,0,1,96.55,88.355,54.438,54.438,0,0,1,54.5,108C24.4,108,0,83.823,0,54S24.4,0,54.5,0Z" stroke="none"/>
          <path d="M 54.5 2 C 47.40938568115234 2 40.53208923339844 3.375457763671875 34.05916595458984 6.088157653808594 C 27.80724334716797 8.708229064941406 22.19230651855469 12.459228515625 17.37035369873047 17.23695373535156 C 12.54967498779297 22.01339721679688 8.765274047851563 27.57456970214844 6.122291564941406 33.76596832275391 C 3.386940002441406 40.17375183105469 2 46.98146057128906 2 54 C 2 61.01853942871094 3.386940002441406 67.82624816894531 6.122291564941406 74.23403167724609 C 8.765274047851563 80.42543029785156 12.54967498779297 85.98660278320313 17.37035369873047 90.76304626464844 C 22.19230651855469 95.540771484375 27.80724334716797 99.29177093505859 34.05916595458984 101.9118499755859 C 40.53208923339844 104.6245422363281 47.40938568115234 106 54.5 106 C 58.52633666992188 106 62.54073715209961 105.5473251342773 66.43167877197266 104.654541015625 C 70.20564270019531 103.7885971069336 73.88732147216797 102.5037536621094 77.37446594238281 100.835693359375 C 80.79251098632813 99.20067596435547 84.03382873535156 97.19309234619141 87.00836944580078 94.86870574951172 C 89.95921325683594 92.56284332275391 92.65018463134766 89.94333648681641 95.00666046142578 87.08280181884766 C 98.83699798583984 82.43424987792969 101.8102188110352 77.28055572509766 103.84375 71.764892578125 C 105.9380798339844 66.08430480957031 107 60.10733795166016 107 54 C 107 46.98146057128906 105.6130599975586 40.17375183105469 102.8777084350586 33.76596832275391 C 100.2347259521484 27.57456970214844 96.45032501220703 22.01339721679688 91.62964630126953 17.23695373535156 C 86.80769348144531 12.459228515625 81.19275665283203 8.708229064941406 74.94082641601563 6.088157653808594 C 68.46791076660156 3.375457763671875 61.59061431884766 2 54.5 2 M 54.5 0 C 84.59952545166016 0 109 24.17662811279297 109 54 C 109 66.94334411621094 104.4040145874023 78.82308959960938 96.5501708984375 88.35462951660156 C 86.74694061279297 100.2548599243164 71.53632354736328 108 54.5 108 C 24.40047454833984 108 0 83.82337188720703 0 54 C 0 24.17662811279297 24.40047454833984 0 54.5 0 Z" stroke="none" fill="#0fbf61"/>
        </g>
      </g>
    </g>
    <g id="Path_117" data-name="Path 117" transform="translate(256 3001)" fill="none">
      <path d="M0,0H0Z" stroke="none"/>
      <path d="M 0 0 L 157 0 L 0 0 Z" stroke="none" fill="#707070"/>
    </g>
  </g>
</svg>
